<svg width="600" height="704" viewBox="0 0 600 704" fill="none" xmlns="http://www.w3.org/2000/svg">
<path d="M0 0H600V704H0V0Z" fill="#DFD6F4"/>
<path d="M299.5 570.203C421.279 570.203 520 471.66 520 350.101C520 228.543 421.279 130 299.5 130C177.721 130 79 228.543 79 350.101C79 471.66 177.721 570.203 299.5 570.203Z" fill="#F7F3FF"/>
<path d="M508.012 344.944H503.59C503.194 342.792 502.63 340.7 501.912 338.68L505.739 336.474L498.256 323.538L494.421 325.749C493.014 324.104 491.479 322.572 489.831 321.167L492.045 317.338L479.086 309.87L476.877 313.689C474.853 312.973 472.757 312.409 470.601 312.014V307.6H455.637V312.014C453.482 312.409 451.385 312.973 449.362 313.689L447.152 309.87L434.193 317.338L436.407 321.167C434.759 322.571 433.224 324.104 431.817 325.749L427.982 323.538L420.499 336.474L424.326 338.68C423.608 340.7 423.044 342.792 422.648 344.944H418.226V359.881H422.648C423.044 362.032 423.608 364.125 424.326 366.145L420.499 368.35L427.982 381.286L431.817 379.076C433.224 380.721 434.759 382.253 436.407 383.658L434.193 387.486L447.152 394.955L449.362 391.135C451.385 391.852 453.482 392.415 455.637 392.81V397.224H470.601V392.81C472.757 392.415 474.853 391.852 476.877 391.135L479.086 394.955L492.045 387.486L489.831 383.658C491.479 382.253 493.014 380.721 494.421 379.076L498.257 381.286L505.739 368.35L501.912 366.145C502.63 364.125 503.195 362.032 503.591 359.881H508.012L508.012 344.944ZM493.939 364.472C490.823 373.172 483.914 380.067 475.2 383.177C447.81 392.952 422.505 367.693 432.298 340.352C435.414 331.653 442.323 324.757 451.038 321.647C478.428 311.873 503.733 337.132 493.939 364.472Z" fill="#ACA9FF"/>
<path d="M413.088 525.257H237.46L329.345 193.178H504.973L413.088 525.257Z" fill="#DDDEFF"/>
<path d="M401.172 545.106H237.309C232.388 545.106 228.243 543.219 225.637 539.794C222.884 536.176 222.161 531.316 223.601 526.111L316.868 189.039C319.746 178.636 330.535 170.172 340.919 170.172H504.781C509.702 170.172 513.847 172.059 516.454 175.484C519.207 179.102 519.93 183.962 518.49 189.167L425.223 526.24C422.345 536.642 411.555 545.106 401.172 545.106ZM340.919 170.653C330.738 170.653 320.156 178.958 317.331 189.167L224.064 526.239C222.665 531.296 223.359 536.006 226.02 539.503C228.533 542.806 232.542 544.625 237.309 544.625H401.172C411.353 544.625 421.935 536.319 424.76 526.111L518.026 189.038C519.426 183.982 518.732 179.271 516.071 175.775C513.558 172.472 509.549 170.653 504.782 170.653H340.919Z" fill="#AE8FF7"/>
<path d="M449.993 359.577H291.025L328.56 223.922H487.528L449.993 359.577Z" fill="#DDDEFF"/>
<path d="M372.027 505.437H269.253L276.931 478.387H379.706L372.027 505.437Z" fill="#DDDEFF"/>
<path d="M414.466 423.977L415.911 418.645L337.517 419.083L334.626 429.746L413.02 429.308L414.466 423.977Z" fill="white"/>
<path d="M408.569 415.961L381.372 416.113L382.738 411.074L409.935 410.923L408.569 415.961Z" fill="white"/>
<path d="M405.668 400.751L385.507 400.864L386.873 395.825L407.034 395.713L405.668 400.751Z" fill="white"/>
<path d="M410.618 408.403L383.421 408.555L384.787 403.517L411.984 403.365L410.618 408.403Z" fill="white"/>
<path d="M350.682 401.859C341.562 389.405 321.272 389.518 305.363 402.112C289.453 414.705 283.947 435.009 293.067 447.462C302.185 459.916 322.476 459.802 338.386 447.209C354.295 434.616 359.801 414.312 350.682 401.859ZM308.45 434.496L301.332 424.775L313.751 414.945L320.869 424.666L308.45 434.496Z" fill="white"/>
<path d="M223.209 239.272H113.849V304.894H223.209V239.272Z" fill="#DDDEFF"/>
<path d="M178.97 258.77H120.949V304.894H178.97V258.77Z" fill="white"/>
<path d="M176.141 267.565H123.777C123.644 267.565 123.537 267.457 123.537 267.324C123.537 267.191 123.644 267.084 123.777 267.084H176.141C176.274 267.084 176.382 267.191 176.382 267.324C176.382 267.457 176.274 267.565 176.141 267.565Z" fill="#DDDEFF"/>
<path d="M176.141 274.487H123.777C123.644 274.487 123.537 274.379 123.537 274.246C123.537 274.114 123.644 274.006 123.777 274.006H176.141C176.274 274.006 176.382 274.114 176.382 274.246C176.382 274.379 176.274 274.487 176.141 274.487Z" fill="#DDDEFF"/>
<path d="M176.141 281.409H123.777C123.644 281.409 123.537 281.302 123.537 281.169C123.537 281.036 123.644 280.928 123.777 280.928H176.141C176.274 280.928 176.382 281.036 176.382 281.169C176.382 281.302 176.274 281.409 176.141 281.409Z" fill="#DDDEFF"/>
<path d="M176.141 288.332H123.777C123.644 288.332 123.537 288.224 123.537 288.091C123.537 287.958 123.644 287.851 123.777 287.851H176.141C176.274 287.851 176.382 287.958 176.382 288.091C176.382 288.224 176.274 288.332 176.141 288.332Z" fill="#DDDEFF"/>
<path d="M176.141 295.254H123.777C123.644 295.254 123.537 295.147 123.537 295.014C123.537 294.881 123.644 294.773 123.777 294.773H176.141C176.274 294.773 176.382 294.881 176.382 295.014C176.382 295.147 176.274 295.254 176.141 295.254Z" fill="#DDDEFF"/>
<path d="M243.351 144.396L186.173 195.75V304.511H300.529V195.75L243.351 144.396Z" fill="#ACA9FF"/>
<path d="M300.529 191.841C300.471 191.841 300.414 191.82 300.368 191.779L243.351 140.569L186.334 191.779C186.235 191.867 186.082 191.86 185.994 191.761C185.905 191.662 185.913 191.51 186.012 191.421L243.19 140.067C243.281 139.985 243.42 139.985 243.511 140.067L300.689 191.421C300.788 191.51 300.796 191.662 300.708 191.761C300.66 191.814 300.595 191.841 300.529 191.841Z" fill="#DDDEFF"/>
<path d="M283.114 243.87H249.105V294.475H283.114V243.87Z" fill="#DDDEFF"/>
<path d="M357.967 283.615H382.624V233.009H357.967V283.615Z" fill="#DDDEFF"/>
<path d="M305.268 305.023H186.797C186.664 305.023 186.557 304.915 186.557 304.782C186.557 304.65 186.664 304.542 186.797 304.542H305.269C305.402 304.542 305.509 304.65 305.509 304.782C305.509 304.915 305.401 305.023 305.268 305.023Z" fill="white"/>
<path d="M240.17 243.87H195.618V287.581H240.17V243.87Z" fill="#DDDEFF"/>
<path d="M290.554 226.746H195.618V239.273H290.554V226.746Z" fill="#DDDEFF"/>
<path d="M290.554 220.322H196.147V195.369L243.363 152.678L290.554 195.369V220.322Z" fill="#DDDEFF"/>
<path d="M217.588 218.488C217.455 218.488 217.347 218.38 217.347 218.248V178.439C217.347 178.306 217.455 178.199 217.588 178.199C217.721 178.199 217.828 178.306 217.828 178.439V218.248C217.828 218.38 217.72 218.488 217.588 218.488Z" fill="white"/>
<path d="M269.114 218.488C268.981 218.488 268.874 218.38 268.874 218.248V178.439C268.874 178.306 268.981 178.199 269.114 178.199C269.247 178.199 269.355 178.306 269.355 178.439V218.248C269.355 218.38 269.247 218.488 269.114 218.488Z" fill="white"/>
<path d="M217.588 218.488C217.455 218.488 217.347 218.38 217.347 218.248V178.439C217.347 178.306 217.455 178.199 217.588 178.199C217.721 178.199 217.828 178.306 217.828 178.439V218.248C217.828 218.38 217.72 218.488 217.588 218.488Z" fill="white"/>
<path d="M269.114 218.488C268.981 218.488 268.874 218.38 268.874 218.248V178.439C268.874 178.306 268.981 178.199 269.114 178.199C269.247 178.199 269.355 178.306 269.355 178.439V218.248C269.355 218.38 269.247 218.488 269.114 218.488Z" fill="white"/>
<path d="M217.894 286.365C217.761 286.365 217.654 286.257 217.654 286.124V245.509C217.654 245.377 217.761 245.269 217.894 245.269C218.027 245.269 218.135 245.377 218.135 245.509V286.124C218.135 286.257 218.027 286.365 217.894 286.365Z" fill="white"/>
<path d="M463.784 346.828H249.652L292.983 190.226H507.115L463.784 346.828Z" fill="#54529E"/>
<path d="M486.471 215.411H298.962L301.735 205.249H489.244L486.471 215.411Z" fill="white"/>
<path d="M459.649 266.327H289.466L297.118 238.711H467.301L459.649 266.327Z" fill="#F5F5F5"/>
<path d="M309.891 257.13C312.949 254.668 313.911 250.788 312.039 248.462C310.167 246.136 306.17 246.246 303.112 248.707C300.054 251.169 299.092 255.049 300.964 257.375C302.836 259.701 306.833 259.591 309.891 257.13Z" fill="white"/>
<path d="M328.183 257.131C331.241 254.67 332.203 250.789 330.331 248.463C328.459 246.137 324.462 246.247 321.404 248.709C318.346 251.17 317.384 255.051 319.256 257.377C321.128 259.703 325.125 259.593 328.183 257.131Z" fill="white"/>
<path d="M346.475 257.132C349.533 254.671 350.495 250.79 348.623 248.464C346.751 246.138 342.754 246.248 339.696 248.71C336.638 251.171 335.676 255.052 337.548 257.378C339.42 259.704 343.417 259.594 346.475 257.132Z" fill="white"/>
<path d="M364.767 257.133C367.825 254.672 368.787 250.791 366.915 248.465C365.043 246.139 361.046 246.249 357.988 248.71C354.93 251.172 353.968 255.053 355.84 257.379C357.712 259.704 361.709 259.595 364.767 257.133Z" fill="white"/>
<path d="M383.059 257.132C386.117 254.67 387.079 250.789 385.207 248.463C383.335 246.138 379.338 246.247 376.28 248.709C373.222 251.17 372.26 255.051 374.132 257.377C376.004 259.703 380.001 259.593 383.059 257.132Z" fill="white"/>
<path d="M401.351 257.132C404.409 254.671 405.371 250.79 403.499 248.464C401.627 246.138 397.63 246.248 394.572 248.71C391.514 251.171 390.552 255.052 392.424 257.378C394.296 259.704 398.293 259.594 401.351 257.132Z" fill="white"/>
<path d="M419.643 257.133C422.701 254.672 423.663 250.791 421.791 248.465C419.919 246.139 415.922 246.249 412.864 248.711C409.806 251.172 408.844 255.053 410.716 257.379C412.588 259.705 416.585 259.595 419.643 257.133Z" fill="white"/>
<path d="M448.21 307.865H278.027L285.679 280.249H455.862L448.21 307.865Z" fill="#F5F5F5"/>
<path d="M298.45 298.668C301.508 296.206 302.47 292.325 300.598 289.999C298.726 287.674 294.729 287.783 291.671 290.245C288.613 292.706 287.651 296.587 289.523 298.913C291.395 301.239 295.392 301.129 298.45 298.668Z" fill="#AE8FF7"/>
<path d="M316.742 298.668C319.8 296.207 320.762 292.326 318.89 290C317.018 287.674 313.021 287.784 309.963 290.246C306.905 292.707 305.943 296.588 307.815 298.914C309.687 301.24 313.684 301.13 316.742 298.668Z" fill="#AE8FF7"/>
<path d="M335.034 298.669C338.092 296.208 339.054 292.327 337.182 290.001C335.31 287.675 331.313 287.785 328.255 290.246C325.197 292.708 324.235 296.589 326.107 298.915C327.979 301.24 331.976 301.131 335.034 298.669Z" fill="#AE8FF7"/>
<path d="M353.326 298.67C356.384 296.208 357.346 292.328 355.474 290.002C353.602 287.676 349.605 287.786 346.547 290.247C343.489 292.709 342.527 296.59 344.399 298.915C346.271 301.241 350.268 301.131 353.326 298.67Z" fill="#AE8FF7"/>
<path d="M244.17 298.272C244.069 298.272 243.969 298.268 243.868 298.259C242.471 298.144 241.228 297.253 240.37 295.75C239.528 294.277 239.154 292.384 239.317 290.42C239.656 286.333 242.25 283.2 245.098 283.436C246.496 283.551 247.738 284.443 248.597 285.945C249.439 287.418 249.813 289.311 249.649 291.275C249.323 295.217 246.898 298.272 244.17 298.272ZM244.793 283.904C242.314 283.904 240.102 286.769 239.796 290.46C239.641 292.328 239.993 294.122 240.787 295.511C241.565 296.872 242.673 297.678 243.908 297.78C246.503 297.995 248.853 295.057 249.171 291.235C249.326 289.368 248.974 287.574 248.179 286.184C247.402 284.823 246.293 284.018 245.059 283.915C244.97 283.908 244.881 283.904 244.793 283.904Z" fill="#54529E"/>
<path d="M242.949 289.434C243.888 278.25 243.447 271.649 238.995 266.441C233.012 259.443 222.886 260.111 221.83 260.196C221.156 260.251 211.523 260.451 206.244 268.568C201.031 276.583 202.056 290.469 206.576 298.795L197.64 319.381C194.833 325.553 195.961 328.072 202.144 330.874L203.544 331.508C209.727 334.31 217.015 331.578 219.821 325.406L225.661 312.563C229.732 314.013 233.352 314.284 235.497 312.865C239.34 310.322 241.844 302.604 242.949 289.434Z" fill="#FFEAE4"/>
<path d="M249.123 291.948C249.106 291.948 249.089 291.947 249.072 291.943L229.166 287.628C229.036 287.6 228.954 287.472 228.982 287.342C229.01 287.213 229.139 287.13 229.268 287.158L249.174 291.473C249.304 291.501 249.386 291.629 249.358 291.759C249.333 291.871 249.234 291.948 249.123 291.948Z" fill="#54529E"/>
<path d="M225.976 312.58C225.945 312.58 225.913 312.574 225.882 312.561C225.76 312.51 225.703 312.368 225.755 312.246L227.767 307.488C227.819 307.365 227.96 307.308 228.083 307.36C228.205 307.412 228.262 307.553 228.21 307.675L226.198 312.433C226.159 312.525 226.07 312.58 225.976 312.58Z" fill="#54529E"/>
<path d="M225.038 294.297C224.936 294.297 224.842 294.233 224.809 294.131C224.273 292.489 223.956 291.44 223.724 290.674C223.611 290.3 223.518 289.993 223.429 289.715C223.389 289.588 223.459 289.453 223.585 289.413C223.711 289.372 223.847 289.442 223.888 289.569C223.977 289.849 224.071 290.159 224.184 290.535C224.415 291.299 224.731 292.345 225.266 293.982C225.307 294.109 225.238 294.244 225.112 294.286C225.087 294.293 225.062 294.297 225.038 294.297Z" fill="#54529E"/>
<path d="M241.887 266.828C238.282 257.449 220.026 253.639 209.765 259.198C195.89 266.717 192.301 286.009 199.572 296.429C202.011 299.925 206.486 304.881 213.654 304.816C217.839 304.779 219.465 299.39 219.833 298.082C216.874 296.033 215.829 292.189 217.282 289.098C218.745 285.985 222.362 284.443 225.372 285.237C227.369 285.764 228.568 287.178 229.033 287.799C238.591 281.208 244.456 273.511 241.887 266.828Z" fill="#54529E"/>
<path d="M188.594 214.658C156.499 218.459 158.269 178.475 158.269 178.475L126.787 223.219C130.336 240.813 146.049 246.641 146.049 246.641C132.679 246.809 125.099 237.577 121.376 230.91L112.607 243.373C112.607 243.373 120.541 274.15 151.88 261.677C183.219 249.204 202.613 275.788 202.613 275.788L207.822 261.677C207.822 261.677 220.689 210.857 188.594 214.658Z" fill="#54529E"/>
<path d="M199.051 269.398C199.003 269.398 198.954 269.384 198.912 269.354C198.804 269.277 198.778 269.127 198.854 269.019C200.637 266.493 202.48 263.882 203.721 261C204.409 259.403 204.736 258.088 204.749 256.862C204.765 255.336 204.248 253.94 203.331 253.032C202.301 252.011 200.75 251.671 199.56 252.205C198.83 252.533 198.273 253.189 197.992 254.051C197.67 255.037 197.764 256.129 198.244 256.972C199.016 258.33 200.639 259.145 202.192 258.956C202.326 258.94 202.444 259.034 202.459 259.166C202.476 259.298 202.382 259.418 202.25 259.434C200.509 259.646 198.691 258.732 197.826 257.211C197.28 256.251 197.171 255.014 197.534 253.902C197.858 252.91 198.508 252.151 199.363 251.767C200.729 251.153 202.501 251.532 203.67 252.69C204.679 253.689 205.247 255.212 205.23 256.868C205.216 258.16 204.877 259.534 204.163 261.191C202.902 264.119 201.044 266.751 199.247 269.296C199.201 269.362 199.126 269.398 199.051 269.398Z" fill="white"/>
<path d="M196.947 267.894C196.902 267.894 196.856 267.881 196.816 267.855C196.705 267.782 196.673 267.633 196.746 267.522L199.163 263.827C199.236 263.717 199.385 263.685 199.496 263.758C199.607 263.831 199.639 263.98 199.566 264.091L197.149 267.785C197.103 267.855 197.026 267.894 196.947 267.894Z" fill="white"/>
<path d="M200.869 272.888C200.811 272.888 200.753 272.867 200.707 272.825C193.124 265.886 182.47 262.183 172.21 262.916C166.512 263.324 160.919 265.022 155.509 266.664C154.263 267.042 152.975 267.433 151.706 267.802C145.347 269.651 137.882 271.362 130.736 270.032C124.313 268.837 117.028 264.336 115.23 256.973C115.199 256.844 115.278 256.713 115.407 256.682C115.534 256.65 115.666 256.729 115.697 256.859C117.444 264.013 124.553 268.393 130.824 269.559C137.873 270.871 145.268 269.173 151.572 267.34C152.838 266.972 154.124 266.581 155.369 266.203C160.804 264.553 166.424 262.847 172.175 262.436C182.563 261.692 193.353 265.444 201.031 272.47C201.129 272.56 201.136 272.712 201.046 272.81C200.999 272.862 200.934 272.888 200.869 272.888Z" fill="#54529E"/>
<path d="M181.512 279.866C180.544 279.866 179.577 279.616 178.745 279.114C177.042 278.087 176.012 276.066 176.18 274.087C176.33 272.329 177.399 270.539 179.191 269.047C182.036 266.68 185.926 265.545 189.601 266.014C193.275 266.482 196.757 268.556 198.915 271.561C198.992 271.669 198.967 271.819 198.859 271.896C198.751 271.974 198.601 271.949 198.524 271.841C196.443 268.943 193.085 266.942 189.541 266.491C185.996 266.039 182.243 267.133 179.499 269.417C177.807 270.826 176.798 272.499 176.659 274.128C176.506 275.929 177.444 277.767 178.994 278.702C180.544 279.638 182.611 279.612 184.137 278.639C185.3 277.898 186.246 276.394 185.805 274.953C185.596 274.269 184.93 273.683 184.149 273.494C183.577 273.355 183.043 273.45 182.656 273.754L183.113 274.461C183.186 274.572 183.154 274.721 183.042 274.793C182.931 274.866 182.782 274.834 182.71 274.722L182.036 273.682L182.17 273.545C182.685 273.018 183.447 272.829 184.263 273.026C185.217 273.258 186.003 273.958 186.265 274.812C186.776 276.483 185.712 278.206 184.396 279.045C183.538 279.592 182.525 279.866 181.512 279.866Z" fill="#54529E"/>
<path d="M102.516 487.286C102.516 487.286 97.4112 513.787 110.646 526.198H351.807C351.807 526.198 380.102 458.759 231.867 464.352L102.516 487.286Z" fill="#54529E"/>
<path d="M101.405 387.989C99.7009 388.356 92.3577 405.721 84.9907 424.19C76.565 445.314 92.0727 468.284 114.849 468.446L122.384 468.5L153.486 382.906L101.405 387.989Z" fill="#FFEAE4"/>
<path d="M126.555 390.539H89.3781L107.555 354.009C116.639 335.752 135.3 324.206 155.722 324.206H212.48L126.555 390.539Z" fill="#AE8FF7"/>
<path d="M288.634 343.883C309.639 352.366 328.941 357.244 342.515 367.035C359.322 379.158 366.023 397.31 358.373 405.431C350.351 413.947 318.519 420.164 275.979 400.924C276.968 383.555 278.162 361.275 288.634 343.883Z" fill="#FFEAE4"/>
<path d="M324.479 366.914C329.608 354.906 342.472 328.078 353.464 308.164C365.009 287.249 385.104 258.049 389.161 260.907C391.471 262.536 389.555 267.084 383.625 278.9C384.523 278.602 387.285 278.239 389.179 280.1C391.983 282.854 390.56 285.858 390.539 286.177C390.835 286.051 394.066 284.785 396.256 286.311C398.722 288.031 399.317 290.567 398.84 292.875C399.586 292.586 402.443 291.798 404.504 293.327C406.625 294.9 407.694 298.078 406.328 300.467C403.823 304.851 396.128 317.737 393.148 324.464C387.285 337.701 372.785 387.499 359.246 404.396C349.3 388.516 334.424 382.794 324.479 366.914Z" fill="#FFEAE4"/>
<path d="M376.195 283.803C376.143 283.803 376.09 283.786 376.046 283.752L372.895 281.283C372.791 281.201 372.773 281.05 372.855 280.945C372.937 280.84 373.087 280.822 373.192 280.904L376.343 283.373C376.448 283.455 376.466 283.606 376.384 283.711C376.337 283.771 376.266 283.803 376.195 283.803Z" fill="#54529E"/>
<path d="M384.199 290.056C384.147 290.056 384.095 290.039 384.051 290.004L380.9 287.536C380.795 287.454 380.777 287.302 380.859 287.198C380.941 287.093 381.092 287.075 381.196 287.157L384.347 289.626C384.452 289.708 384.47 289.859 384.388 289.963C384.341 290.024 384.27 290.056 384.199 290.056Z" fill="#54529E"/>
<path d="M392.419 296.333C392.368 296.333 392.315 296.317 392.271 296.282L389.12 293.813C389.015 293.731 388.997 293.58 389.079 293.475C389.161 293.371 389.312 293.353 389.417 293.435L392.568 295.903C392.673 295.985 392.691 296.136 392.609 296.241C392.562 296.301 392.491 296.333 392.419 296.333Z" fill="#54529E"/>
<path d="M399.757 302.179C399.705 302.179 399.653 302.163 399.609 302.128L396.458 299.659C396.353 299.577 396.335 299.426 396.417 299.322C396.499 299.217 396.65 299.199 396.755 299.281L399.906 301.75C400.011 301.832 400.029 301.983 399.947 302.087C399.9 302.148 399.829 302.179 399.757 302.179Z" fill="#54529E"/>
<path d="M190.836 324.206C251.443 322.775 301.605 345.69 301.605 345.69L295.803 411.47L270.047 411.947L254.362 464.826L235.304 464.282L222.663 497.7L89.3781 499.208L114.704 409.454C114.704 409.454 127.801 325.694 190.836 324.206Z" fill="#AE8FF7"/>
<path d="M270.302 411.765C270.174 411.765 270.067 411.663 270.062 411.534C269.973 409.383 269.927 406.735 269.883 404.175C269.839 401.62 269.793 398.979 269.704 396.836C269.699 396.703 269.802 396.591 269.935 396.586C270.056 396.581 270.179 396.683 270.185 396.816C270.274 398.965 270.32 401.609 270.364 404.167C270.408 406.724 270.453 409.369 270.543 411.514C270.548 411.647 270.445 411.759 270.312 411.765C270.309 411.764 270.306 411.765 270.302 411.765Z" fill="#54529E"/>
<path d="M119.441 388.23C119.419 388.23 119.396 388.227 119.374 388.22C119.246 388.183 119.173 388.05 119.21 387.922L126.44 363.172C126.477 363.044 126.61 362.971 126.739 363.008C126.866 363.046 126.939 363.179 126.902 363.306L119.672 388.057C119.641 388.162 119.545 388.23 119.441 388.23Z" fill="#54529E"/>
<path d="M155.722 324.206C155.722 324.206 161.359 312.755 175.828 312.715C190.297 312.674 243.478 323.971 243.478 323.971L245.889 329.961C245.889 329.961 203.669 354.833 173.339 358.416C143.009 361.998 144.308 334.108 155.722 324.206Z" fill="#F5F5F5"/>
<path d="M186.244 336.647C180.127 336.647 176.135 335.485 173.529 333.996C169.689 331.802 169.164 329.058 169.143 328.942C169.12 328.811 169.208 328.686 169.338 328.663C169.468 328.639 169.594 328.727 169.617 328.858C169.627 328.911 170.16 331.53 173.799 333.596C180.142 337.198 194.859 338.819 228.942 326.086C229.066 326.039 229.205 326.103 229.251 326.227C229.298 326.351 229.235 326.49 229.11 326.537C208.725 334.152 195.205 336.647 186.244 336.647Z" fill="#54529E"/>
<path d="M437.398 551.84C423.242 551.84 409.933 546.337 399.924 536.346C389.914 526.354 384.401 513.069 384.401 498.939V457.89C384.401 457.758 384.509 457.65 384.642 457.65H490.154C490.287 457.65 490.395 457.758 490.395 457.89V498.939C490.395 513.069 484.882 526.354 474.872 536.346C464.862 546.337 451.554 551.84 437.398 551.84ZM384.882 458.131V498.939C384.882 527.843 408.441 551.359 437.398 551.359C466.355 551.359 489.913 527.843 489.913 498.939V458.131H384.882ZM441.609 524.219H433.186C433.053 524.219 432.946 524.111 432.946 523.978V501.928C428.224 500.101 425.063 495.513 425.063 490.458C425.063 483.669 430.596 478.146 437.397 478.146C444.198 478.146 449.731 483.669 449.731 490.458C449.731 495.513 446.571 500.101 441.849 501.928V523.978C441.849 524.111 441.742 524.219 441.609 524.219ZM433.427 523.738H441.369V501.762C441.369 501.661 441.431 501.571 441.525 501.536C446.146 499.821 449.251 495.369 449.251 490.458C449.251 483.934 443.934 478.627 437.398 478.627C430.862 478.627 425.545 483.934 425.545 490.458C425.545 495.368 428.649 499.821 433.27 501.536C433.365 501.571 433.427 501.661 433.427 501.762V523.738Z" fill="#54529E"/>
<path d="M484.342 447.096C484.209 447.096 484.102 446.988 484.102 446.855C484.102 421.149 463.15 400.236 437.398 400.236C411.645 400.236 390.694 421.149 390.694 446.855C390.694 446.988 390.586 447.096 390.453 447.096C390.32 447.096 390.213 446.988 390.213 446.855C390.213 420.884 411.38 399.755 437.398 399.755C463.416 399.755 484.583 420.884 484.583 446.855C484.583 446.988 484.475 447.096 484.342 447.096Z" fill="#54529E"/>
</svg>
