<svg width="25" height="24" viewBox="0 0 25 24" fill="none" xmlns="http://www.w3.org/2000/svg">
<g opacity="0.4">
<path d="M9.09 8.99999C9.3251 8.33166 9.78915 7.7681 10.4 7.40912C11.0009 7.05597 11.6837 6.94067 12.3359 7.03629C13.061 7.14261 13.7482 7.50971 14.2424 8.10055C14.7918 8.75741 15.0514 9.6308 14.7562 10.5C14.3725 11.6293 13.1892 12.5769 11.92 13M12 17H12.01M22 12C22 17.5228 17.5228 22 12 22C6.47715 22 2 17.5228 2 12C2 6.47715 6.47715 2 12 2C17.5228 2 22 6.47715 22 12Z" stroke="black" stroke-width="2" stroke-linecap="round" stroke-linejoin="round"/>
</g>
</svg>
