<svg width="20" height="20" viewBox="0 0 20 20" fill="none" xmlns="http://www.w3.org/2000/svg">
<path d="M2.92498 12.5C3.46531 14.0337 4.48943 15.3502 5.84303 16.2512C7.19663 17.1522 8.80638 17.5888 10.4297 17.4954C12.0531 17.402 13.6021 16.7835 14.8434 15.7331C16.0847 14.6828 16.951 13.2575 17.3118 11.672C17.6726 10.0865 17.5084 8.42664 16.8438 6.94259C16.1793 5.45854 15.0504 4.23067 13.6273 3.44398C12.2043 2.65729 10.5641 2.35439 8.95388 2.58094C7.34369 2.80748 5.85074 3.55119 4.69998 4.70001L0.833313 8.33334M0.833313 8.33334L5.83331 8.33335M0.833313 8.33334V3.33335" stroke="#717171" stroke-width="1.66667" stroke-linecap="round" stroke-linejoin="round"/>
<path d="M10.3941 5.83334V10.8333L12.8941 13.3333" stroke="#717171" stroke-width="1.66667" stroke-linecap="round"/>
</svg>
