<svg width="25" height="24" viewBox="0 0 25 24" fill="none" xmlns="http://www.w3.org/2000/svg">
<g opacity="0.4">
<path d="M12.7238 2.00012L12.7239 1.00012H12.7238V2.00012ZM14.5441 3.04016L13.6905 3.56104L13.6917 3.56299L14.5441 3.04016ZM14.8195 4.09973L13.8225 4.02156L13.8218 4.03172L14.8195 4.09973ZM15.0549 4.98059L14.1914 5.48507L14.1969 5.49443L14.2026 5.50368L15.0549 4.98059ZM17.632 5.67004L18.1027 6.55235L18.116 6.54527L18.129 6.53779L17.632 5.67004ZM20.5051 6.42981L21.3702 5.9282L21.3668 5.92242L20.5051 6.42981ZM21.1896 7.61047L20.3245 8.11207L20.3281 8.11821L20.3317 8.1243L21.1896 7.61047ZM20.4328 10.4406L19.9459 9.5671L19.9361 9.57257L19.9264 9.57825L20.4328 10.4406ZM19.7785 12.9406L20.6337 12.4223L20.6336 12.4221L19.7785 12.9406ZM20.4133 13.5802L20.8824 12.6971L20.8676 12.6892L20.8526 12.6819L20.4133 13.5802ZM21.2414 14.3702L22.0951 13.8495L22.0881 13.838L22.0808 13.8267L21.2414 14.3702ZM21.2209 16.42L22.0797 16.9323L22.0888 16.917L22.0974 16.9015L21.2209 16.42ZM20.5051 17.6202L19.6462 17.108L19.6442 17.1114L20.5051 17.6202ZM18.6955 18.6603V19.6603H18.6957L18.6955 18.6603ZM17.6115 18.3605L17.0728 19.2029L17.0814 19.2085L17.0902 19.2138L17.6115 18.3605ZM16.7111 18.13V17.13H16.711L16.7111 18.13ZM14.8195 19.9503L13.82 19.9193L13.8195 19.9348L13.8195 19.9502L14.8195 19.9503ZM12.7033 22.0001V23.0001H12.7033L12.7033 22.0001ZM9.18573 19.9503L10.1857 19.9502L10.1857 19.9399L10.1855 19.9297L9.18573 19.9503ZM7.30487 18.13L7.30506 17.13H7.30487V18.13ZM6.40448 18.3605L6.92583 19.2138L6.94223 19.2038L6.95824 19.1931L6.40448 18.3605ZM5.3205 18.6603L5.32031 19.6603H5.3205V18.6603ZM3.50116 17.6202L2.63924 18.1273L2.64038 18.1292L3.50116 17.6202ZM2.7951 16.42L1.93079 16.923L1.93319 16.9271L2.7951 16.42ZM2.7746 14.3702L3.6283 14.891L3.64093 14.8703L3.65254 14.849L2.7746 14.3702ZM3.59296 13.5802L3.15364 12.6819L3.13327 12.6918L3.11338 12.7027L3.59296 13.5802ZM4.23749 12.9406L5.0783 13.4819L5.08795 13.4669L5.09707 13.4515L4.23749 12.9406ZM3.57245 10.4406L4.07866 9.57814L4.07092 9.5736L4.0631 9.5692L3.57245 10.4406ZM2.81561 7.61047L3.67748 8.11765L3.6804 8.11261L2.81561 7.61047ZM3.50116 6.42981L2.64332 5.91571L2.63637 5.92767L3.50116 6.42981ZM6.38397 5.67004L5.8907 6.53992L5.89985 6.54511L5.9091 6.5501L6.38397 5.67004ZM8.95038 4.98059L9.80259 5.50379L9.8083 5.49449L9.8138 5.48507L8.95038 4.98059ZM9.18573 4.09973L8.18709 4.15187L8.1875 4.15981L8.18805 4.16774L9.18573 4.09973ZM9.47186 3.04016L10.3113 3.58362L10.3185 3.57243L10.3255 3.56104L9.47186 3.04016ZM11.2824 2.00012V1.00012H11.269L11.2556 1.00048L11.2824 2.00012ZM12.0178 9.17981V8.17981H12.0176L12.0178 9.17981ZM9.11444 12.0099L8.11444 12.0098V12.0099H9.11444ZM12.0178 14.8302L12.0176 15.8302H12.0178V14.8302ZM14.8918 12.0099H15.8918V12.0098L14.8918 12.0099ZM12.7238 2.00012L12.7238 3.00012C13.1075 3.00014 13.4808 3.2173 13.6905 3.56104L14.5441 3.04016L15.3978 2.51928C14.8509 1.62308 13.8533 1.00018 12.7239 1.00012L12.7238 2.00012ZM14.5441 3.04016L13.6917 3.56299C13.7924 3.72716 13.833 3.88888 13.8226 4.02156L14.8195 4.09973L15.8165 4.1779C15.8672 3.53102 15.6637 2.9529 15.3966 2.51733L14.5441 3.04016ZM14.8195 4.09973L13.8218 4.03172C13.7842 4.58378 13.9567 5.08336 14.1914 5.48507L15.0549 4.98059L15.9183 4.47611C15.8258 4.31782 15.8139 4.21569 15.8172 4.16774L14.8195 4.09973ZM15.0549 4.98059L14.2026 5.50368C15.0019 6.80595 16.7382 7.28022 18.1027 6.55235L17.632 5.67004L17.1613 4.78774C16.7264 5.01976 16.151 4.85479 15.9072 4.4575L15.0549 4.98059ZM17.632 5.67004L18.129 6.53779C18.6629 6.23201 19.3366 6.41619 19.6433 6.9372L20.5051 6.42981L21.3668 5.92242C20.508 4.46385 18.6255 3.94862 17.135 4.8023L17.632 5.67004ZM20.5051 6.42981L19.64 6.93141L20.3245 8.11207L21.1896 7.61047L22.0547 7.10887L21.3702 5.92821L20.5051 6.42981ZM21.1896 7.61047L20.3317 8.1243C20.6374 8.63464 20.4706 9.27458 19.9459 9.5671L20.4328 10.4406L20.9197 11.314C22.4399 10.4666 22.9277 8.56627 22.0475 7.09665L21.1896 7.61047ZM20.4328 10.4406L19.9264 9.57825C18.5957 10.3597 18.1016 12.1037 18.9234 13.459L19.7785 12.9406L20.6336 12.4221C20.4127 12.0578 20.5325 11.5417 20.9392 11.3029L20.4328 10.4406ZM19.7785 12.9406L18.9233 13.4588C19.1259 13.7932 19.4345 14.2147 19.974 14.4785L20.4133 13.5802L20.8526 12.6819C20.8196 12.6657 20.7583 12.6278 20.6337 12.4223L19.7785 12.9406ZM20.4133 13.5802L19.9441 14.4633C20.11 14.5515 20.2709 14.7113 20.402 14.9138L21.2414 14.3702L22.0808 13.8267C21.8235 13.4294 21.4319 12.989 20.8824 12.6971L20.4133 13.5802ZM21.2414 14.3702L20.3877 14.891C20.5476 15.1531 20.5713 15.5255 20.3444 15.9386L21.2209 16.42L22.0974 16.9015C22.6064 15.9748 22.6915 14.8272 22.0951 13.8495L21.2414 14.3702ZM21.2209 16.42L20.362 15.9078L19.6462 17.108L20.5051 17.6202L21.3639 18.1325L22.0797 16.9323L21.2209 16.42ZM20.5051 17.6202L19.6442 17.1114C19.4448 17.4488 19.0654 17.6602 18.6953 17.6603L18.6955 18.6603L18.6957 19.6603C19.7772 19.66 20.8089 19.0714 21.3659 18.1291L20.5051 17.6202ZM18.6955 18.6603V17.6603C18.5063 17.6603 18.2903 17.6033 18.1328 17.5071L17.6115 18.3605L17.0902 19.2138C17.5869 19.5173 18.1692 19.6603 18.6955 19.6603V18.6603ZM17.6115 18.3605L18.1502 17.518C17.6719 17.2121 17.157 17.13 16.7111 17.13V18.13V19.13C16.9196 19.13 17.0194 19.1688 17.0728 19.2029L17.6115 18.3605ZM16.7111 18.13L16.711 17.13C15.161 17.1303 13.8675 18.3872 13.82 19.9193L14.8195 19.9503L15.819 19.9813C15.8329 19.5336 16.237 19.1301 16.7113 19.13L16.7111 18.13ZM14.8195 19.9503L13.8195 19.9502C13.8195 20.5147 13.3606 21.0001 12.7033 21.0001L12.7033 22.0001L12.7033 23.0001C14.3976 23.0001 15.8194 21.6857 15.8195 19.9504L14.8195 19.9503ZM12.7033 22.0001V21.0001H11.3127V22.0001V23.0001H12.7033V22.0001ZM11.3127 22.0001V21.0001C10.6416 21.0001 10.1858 20.5113 10.1857 19.9502L9.18573 19.9503L8.18573 19.9504C8.18589 21.6891 9.61168 23.0001 11.3127 23.0001V22.0001ZM9.18573 19.9503L10.1855 19.9297C10.1537 18.3876 8.85313 17.1303 7.30506 17.13L7.30487 18.13L7.30468 19.13C7.78082 19.1301 8.1769 19.5333 8.18594 19.971L9.18573 19.9503ZM7.30487 18.13V17.13C6.85732 17.13 6.33029 17.2089 5.85072 17.5278L6.40448 18.3605L6.95824 19.1931C6.98991 19.1721 7.07757 19.13 7.30487 19.13V18.13ZM6.40448 18.3605L5.88313 17.5071C5.7276 17.6022 5.50198 17.6603 5.3205 17.6603V18.6603V19.6603C5.83407 19.6603 6.42708 19.5185 6.92583 19.2138L6.40448 18.3605ZM5.3205 18.6603L5.32069 17.6603C4.93813 17.6602 4.56027 17.4467 4.36194 17.1113L3.50116 17.6202L2.64038 18.1292C3.19862 19.0733 4.23093 19.6601 5.32031 19.6603L5.3205 18.6603ZM3.50116 17.6202L4.36308 17.1132L3.65702 15.913L2.7951 16.42L1.93319 16.9271L2.63924 18.1273L3.50116 17.6202ZM2.7951 16.42L3.65941 15.9171C3.44608 15.5505 3.46099 15.1653 3.6283 14.891L2.7746 14.3702L1.9209 13.8495C1.33189 14.815 1.38775 15.9898 1.9308 16.923L2.7951 16.42ZM2.7746 14.3702L3.65254 14.849C3.7137 14.7369 3.87256 14.567 4.07254 14.4577L3.59296 13.5802L3.11338 12.7027C2.61806 12.9734 2.16269 13.4036 1.89665 13.8915L2.7746 14.3702ZM3.59296 13.5802L4.03228 14.4785C4.56957 14.2158 4.87647 13.7954 5.0783 13.4819L4.23749 12.9406L3.39668 12.3992C3.25091 12.6256 3.18882 12.6647 3.15364 12.6819L3.59296 13.5802ZM4.23749 12.9406L5.09707 13.4515C5.9011 12.099 5.4096 10.3594 4.07866 9.57814L3.57245 10.4406L3.06624 11.303C3.47322 11.5418 3.59628 12.0622 3.37791 12.4296L4.23749 12.9406ZM3.57245 10.4406L4.0631 9.5692C3.54623 9.27815 3.37438 8.63267 3.67746 8.11764L2.81561 7.61047L1.95376 7.10331C1.09174 8.56818 1.57437 10.4631 3.08179 11.3119L3.57245 10.4406ZM2.81561 7.61047L3.6804 8.11261L4.36595 6.93195L3.50116 6.42981L2.63637 5.92767L1.95082 7.10834L2.81561 7.61047ZM3.50116 6.42981L4.35892 6.94386C4.6765 6.41394 5.34668 6.23143 5.8907 6.53992L6.38397 5.67004L6.87725 4.80017C5.37662 3.94922 3.51199 4.46641 2.6434 5.91576L3.50116 6.42981ZM6.38397 5.67004L5.9091 6.5501C7.26886 7.28381 9.00537 6.80234 9.80259 5.50379L8.95038 4.98059L8.09817 4.45739C7.85216 4.8581 7.27787 5.01609 6.85884 4.78999L6.38397 5.67004ZM8.95038 4.98059L9.8138 5.48507C10.0485 5.08336 10.221 4.58378 10.1834 4.03172L9.18573 4.09973L8.18805 4.16774C8.19131 4.21569 8.17944 4.31782 8.08696 4.47611L8.95038 4.98059ZM9.18573 4.09973L10.1844 4.0476C10.1758 3.88283 10.2234 3.71942 10.3113 3.58362L9.47186 3.04016L8.63243 2.4967C8.33207 2.96064 8.15499 3.53708 8.18709 4.15187L9.18573 4.09973ZM9.47186 3.04016L10.3255 3.56104C10.5259 3.23257 10.8993 3.01075 11.3092 2.99976L11.2824 2.00012L11.2556 1.00048C10.1727 1.0295 9.17445 1.60775 8.61823 2.51928L9.47186 3.04016ZM11.2824 2.00012V3.00012H12.7238V2.00012V1.00012H11.2824V2.00012ZM12.0178 9.17981L12.0176 8.17981C9.88592 8.18011 8.11462 9.86267 8.11444 12.0098L9.11444 12.0099L10.1144 12.01C10.1145 11.0176 10.9395 10.18 12.0179 10.1798L12.0178 9.17981ZM9.11444 12.0099H8.11444C8.11444 14.1617 9.8905 15.8299 12.0176 15.8302L12.0178 14.8302L12.0179 13.8302C10.9348 13.83 10.1144 12.9978 10.1144 12.0099H9.11444ZM12.0178 14.8302V15.8302C14.1587 15.8302 15.8918 14.1487 15.8918 12.0099H14.8918H13.8918C13.8918 13.0111 13.0874 13.8302 12.0178 13.8302V14.8302ZM14.8918 12.0099L15.8918 12.0098C15.8916 9.87577 14.1633 8.17981 12.0178 8.17981V9.17981V10.1798C13.0827 10.1798 13.8917 11.0042 13.8918 12.01L14.8918 12.0099Z" fill="black"/>
</g>
</svg>
